<?xml version="1.0" encoding="UTF-8"?>
<svg xmlns="http://www.w3.org/2000/svg" viewBox="0 0 300 400" width="300" height="400">
  <defs>
    <linearGradient id="bgf8k4qe" x1="0" y1="0" x2="0.2" y2="1">
      <stop offset="0%" stop-color="#fab005"/>
      <stop offset="100%" stop-color="#e67700"/>
    </linearGradient>
    <linearGradient id="spinef8k4qe" x1="0" y1="0" x2="1" y2="0">
      <stop offset="0%" stop-color="rgba(0,0,0,0.3)"/>
      <stop offset="100%" stop-color="rgba(0,0,0,0)"/>
    </linearGradient>
  </defs>
  <rect width="300" height="400" fill="url(#bgf8k4qe)"/>
  <rect x="0" y="0" width="28" height="400" fill="url(#spinef8k4qe)"/>
  <rect x="0" y="0" width="300" height="8" fill="#339af0"/>
  <rect x="16" y="16" width="268" height="368" rx="6" fill="none" stroke="rgba(255,255,255,0.3)" stroke-width="2"/>
  
      <rect x="118" y="100" width="64" height="48" rx="3" fill="#fff" opacity="0.9"/>
      <line x1="128" y1="115" x2="172" y2="115" stroke="#ccc"/><line x1="128" y1="128" x2="165" y2="128" stroke="#ccc"/>
      <line x1="175" y1="108" x2="195" y2="138" stroke="#339af0" stroke-width="3" stroke-linecap="round"/>
  
  <text x="150" y="208" text-anchor="middle" font-family="Arial" font-size="40" font-weight="800" fill="rgba(255,255,255,0.95)">150</text>
  <text x="150" y="228.6" text-anchor="middle" font-family="Georgia, 'Palatino Linotype', serif" font-size="16" font-weight="700" fill="#ffffff"><tspan x="150" dy="0" text-anchor="middle">150 Totally</tspan><tspan x="150" dy="17.6" text-anchor="middle">Terrific</tspan><tspan x="150" dy="17.6" text-anchor="middle">Writing Prompts</tspan><tspan x="150" dy="17.6" text-anchor="middle">(Grade 2-4)</tspan></text>
  <text x="150" y="272" text-anchor="middle" font-family="Arial" font-size="10" font-weight="600" fill="rgba(255,255,255,0.9)">Creative Writing Ideas</text>
  
  <line x1="50" y1="288" x2="250" y2="288" stroke="rgba(255,255,255,0.35)" stroke-width="1"/>
  <text x="150" y="312" text-anchor="middle" font-family="Arial" font-size="9" font-weight="700" fill="rgba(255,255,255,0.8)" letter-spacing="2">LIFEWITHBOOKS</text>
  <text x="150" y="332" text-anchor="middle" font-family="Arial" font-size="10" font-weight="700" fill="#fff" letter-spacing="1">KIDS LEARNING BOOKS</text>
  <circle cx="118" cy="358" r="5" fill="#ff6b6b"/>
  <circle cx="136" cy="358" r="5" fill="#ffd93d"/>
  <circle cx="154" cy="358" r="5" fill="#6bcb77"/>
  <circle cx="172" cy="358" r="5" fill="#4d96ff"/>
  <circle cx="190" cy="358" r="5" fill="#c77dff"/>
</svg>