<?xml version="1.0" encoding="UTF-8"?>
<svg xmlns="http://www.w3.org/2000/svg" viewBox="0 0 300 400" width="300" height="400">
  <defs>
    <linearGradient id="bgvarz4r" x1="0" y1="0" x2="0.85" y2="1">
      <stop offset="0%" stop-color="#e67e22"/>
      <stop offset="100%" stop-color="#a04000"/>
    </linearGradient>
    <linearGradient id="spinevarz4r" x1="0" y1="0" x2="1" y2="0">
      <stop offset="0%" stop-color="rgba(0,0,0,0.32)"/>
      <stop offset="100%" stop-color="rgba(0,0,0,0)"/>
    </linearGradient>
    <linearGradient id="shinevarz4r" x1="0" y1="0" x2="1" y2="0">
      <stop offset="0%" stop-color="rgba(255,255,255,0.08)"/>
      <stop offset="50%" stop-color="rgba(255,255,255,0)"/>
      <stop offset="100%" stop-color="rgba(255,255,255,0.05)"/>
    </linearGradient>
    <marker id="arrowvarz4r" markerWidth="8" markerHeight="8" refX="6" refY="3" orient="auto">
      <path d="M0,0 L6,3 L0,6 Z" fill="rgba(255,255,255,0.6)"/>
    </marker>
  </defs>
  <rect width="300" height="400" fill="url(#bgvarz4r)"/>
  <rect width="300" height="400" fill="url(#shinevarz4r)"/>
  <rect x="0" y="0" width="28" height="400" fill="url(#spinevarz4r)"/>
  <rect x="274" y="0" width="6" height="400" fill="#f1c40f" opacity="0.85"/>
  <rect x="18" y="18" width="264" height="364" rx="5" fill="none" stroke="rgba(255,255,255,0.28)" stroke-width="1.5"/>
  
      <rect x="95" y="88" width="110" height="90" rx="6" fill="rgba(255,255,255,0.15)" stroke="rgba(255,255,255,0.35)" stroke-width="1.5"/>
      <rect x="95" y="88" width="110" height="22" rx="6" fill="rgba(255,255,255,0.25)"/>
      <rect x="103" y="118" width="26" height="18" rx="3" fill="rgba(255,255,255,0.12)"/><rect x="137" y="118" width="26" height="18" rx="3" fill="rgba(255,255,255,0.16)"/><rect x="171" y="118" width="26" height="18" rx="3" fill="rgba(255,255,255,0.2)"/><rect x="103" y="142" width="26" height="18" rx="3" fill="rgba(255,255,255,0.12)"/><rect x="137" y="142" width="26" height="18" rx="3" fill="rgba(255,255,255,0.16)"/><rect x="171" y="142" width="26" height="18" rx="3" fill="rgba(255,255,255,0.2)"/>
  
  <circle cx="150" cy="108" r="36" fill="rgba(0,0,0,0.2)" stroke="rgba(255,255,255,0.45)" stroke-width="2"/>
       <text x="150" y="118" text-anchor="middle" font-family="Arial" font-size="26" font-weight="800" fill="#ffffff">366</text>
  <text x="150" y="210" text-anchor="middle" font-family="Arial" font-size="42" font-weight="800" fill="rgba(255,255,255,0.92)">366</text>
  <text x="150" y="219.44" text-anchor="middle" font-family="Georgia, 'Times New Roman', serif" font-size="17" font-weight="700" fill="#ffffff"><tspan x="150" dy="0" text-anchor="middle">366 jours pour</tspan><tspan x="150" dy="19.040000000000003" text-anchor="middle">mieux vous</tspan><tspan x="150" dy="19.040000000000003" text-anchor="middle">exprimer en</tspan><tspan x="150" dy="19.040000000000003" text-anchor="middle">français</tspan></text>
  <text x="150" y="268" text-anchor="middle" font-family="Arial, Helvetica, sans-serif" font-size="11" font-weight="600" fill="rgba(255,255,255,0.85)" letter-spacing="1">One Tip Every Day</text>
  <line x1="60" y1="290" x2="240" y2="290" stroke="rgba(255,255,255,0.35)" stroke-width="1"/>
  <text x="150" y="318" text-anchor="middle" font-family="Arial, Helvetica, sans-serif" font-size="9" font-weight="700" fill="rgba(255,255,255,0.75)" letter-spacing="2">LIFEWITHBOOKS</text>
  <text x="150" y="338" text-anchor="middle" font-family="Arial, Helvetica, sans-serif" font-size="10" font-weight="700" fill="rgba(255,255,255,0.95)" letter-spacing="1.2">FRENCH LEARNING BOOKS</text>
  <rect x="115" y="352" width="22" height="14" fill="#0055A4"/>
  <rect x="137" y="352" width="22" height="14" fill="#ffffff"/>
  <rect x="159" y="352" width="22" height="14" fill="#EF4135"/>
</svg>