<?xml version="1.0" encoding="UTF-8"?>
<svg xmlns="http://www.w3.org/2000/svg" viewBox="0 0 300 400" width="300" height="400">
  <defs>
    <linearGradient id="bgvynjis" x1="0" y1="0" x2="0.2" y2="1">
      <stop offset="0%" stop-color="#4dabf7"/>
      <stop offset="100%" stop-color="#1971c2"/>
    </linearGradient>
    <linearGradient id="spinevynjis" x1="0" y1="0" x2="1" y2="0">
      <stop offset="0%" stop-color="rgba(0,0,0,0.3)"/>
      <stop offset="100%" stop-color="rgba(0,0,0,0)"/>
    </linearGradient>
  </defs>
  <rect width="300" height="400" fill="url(#bgvynjis)"/>
  <rect x="0" y="0" width="28" height="400" fill="url(#spinevynjis)"/>
  <rect x="0" y="0" width="300" height="8" fill="#ffd43b"/>
  <rect x="16" y="16" width="268" height="368" rx="6" fill="none" stroke="rgba(255,255,255,0.3)" stroke-width="2"/>
  
      <path d="M110 95 V145 Q150 125 190 95 V145 Q150 165 110 145 Z" fill="rgba(255,255,255,0.85)"/>
      <line x1="150" y1="120" x2="150" y2="145" stroke="rgba(0,0,0,0.15)" stroke-width="1"/>
  
  
  <text x="150" y="182.4" text-anchor="middle" font-family="Georgia, 'Palatino Linotype', serif" font-size="16" font-weight="700" fill="#ffffff"><tspan x="150" dy="0" text-anchor="middle">All in One</tspan><tspan x="150" dy="17.6" text-anchor="middle">Reading</tspan><tspan x="150" dy="17.6" text-anchor="middle">Passages</tspan></text>
  <text x="150" y="272" text-anchor="middle" font-family="Arial" font-size="10" font-weight="600" fill="rgba(255,255,255,0.9)">Reading Passages</text>
  
  <line x1="50" y1="288" x2="250" y2="288" stroke="rgba(255,255,255,0.35)" stroke-width="1"/>
  <text x="150" y="312" text-anchor="middle" font-family="Arial" font-size="9" font-weight="700" fill="rgba(255,255,255,0.8)" letter-spacing="2">LIFEWITHBOOKS</text>
  <text x="150" y="332" text-anchor="middle" font-family="Arial" font-size="10" font-weight="700" fill="#fff" letter-spacing="1">KIDS LEARNING BOOKS</text>
  <circle cx="118" cy="358" r="5" fill="#ff6b6b"/>
  <circle cx="136" cy="358" r="5" fill="#ffd93d"/>
  <circle cx="154" cy="358" r="5" fill="#6bcb77"/>
  <circle cx="172" cy="358" r="5" fill="#4d96ff"/>
  <circle cx="190" cy="358" r="5" fill="#c77dff"/>
</svg>