<?xml version="1.0" encoding="UTF-8"?>
<svg xmlns="http://www.w3.org/2000/svg" viewBox="0 0 300 400" width="300" height="400">
  <defs>
    <linearGradient id="bgc7624j" x1="0" y1="0" x2="0.2" y2="1">
      <stop offset="0%" stop-color="#da77f2"/>
      <stop offset="100%" stop-color="#862e9c"/>
    </linearGradient>
    <linearGradient id="spinec7624j" x1="0" y1="0" x2="1" y2="0">
      <stop offset="0%" stop-color="rgba(0,0,0,0.3)"/>
      <stop offset="100%" stop-color="rgba(0,0,0,0)"/>
    </linearGradient>
  </defs>
  <rect width="300" height="400" fill="url(#bgc7624j)"/>
  <rect x="0" y="0" width="28" height="400" fill="url(#spinec7624j)"/>
  <rect x="0" y="0" width="300" height="8" fill="#ffd43b"/>
  <rect x="16" y="16" width="268" height="368" rx="6" fill="none" stroke="rgba(255,255,255,0.3)" stroke-width="2"/>
  
      <path d="M150 78 L175 118 H125 Z" fill="rgba(255,255,255,0.9)"/>
      <rect x="118" y="118" width="64" height="48" rx="4" fill="rgba(255,255,255,0.75)"/>
      <circle cx="135" cy="62" r="3" fill="#fff" opacity="0.9"/><circle cx="165" cy="55" r="2" fill="#fff"/><circle cx="180" cy="72" r="2.5" fill="#fff"/>
  <rect x="205" y="34" width="58" height="30" rx="8" fill="rgba(0,0,0,0.2)" stroke="rgba(255,255,255,0.45)"/>
       <text x="234" y="55" text-anchor="middle" font-family="Arial" font-size="17" font-weight="800" fill="#fff">1</text>
  
  <text x="150" y="191.2" text-anchor="middle" font-family="Georgia, 'Palatino Linotype', serif" font-size="16" font-weight="700" fill="#ffffff"><tspan x="150" dy="0" text-anchor="middle">Fairyland</tspan><tspan x="150" dy="17.6" text-anchor="middle">Pupil's Book 1</tspan></text>
  <text x="150" y="272" text-anchor="middle" font-family="Arial" font-size="10" font-weight="600" fill="rgba(255,255,255,0.9)">Fairy-Tale English</text>
  
  <line x1="50" y1="288" x2="250" y2="288" stroke="rgba(255,255,255,0.35)" stroke-width="1"/>
  <text x="150" y="312" text-anchor="middle" font-family="Arial" font-size="9" font-weight="700" fill="rgba(255,255,255,0.8)" letter-spacing="2">LIFEWITHBOOKS</text>
  <text x="150" y="332" text-anchor="middle" font-family="Arial" font-size="10" font-weight="700" fill="#fff" letter-spacing="1">KIDS LEARNING BOOKS</text>
  <circle cx="118" cy="358" r="5" fill="#ff6b6b"/>
  <circle cx="136" cy="358" r="5" fill="#ffd93d"/>
  <circle cx="154" cy="358" r="5" fill="#6bcb77"/>
  <circle cx="172" cy="358" r="5" fill="#4d96ff"/>
  <circle cx="190" cy="358" r="5" fill="#c77dff"/>
</svg>