<?xml version="1.0" encoding="UTF-8"?>
<svg xmlns="http://www.w3.org/2000/svg" viewBox="0 0 300 400" width="300" height="400">
  <defs>
    <linearGradient id="bg9ut3vc" x1="0" y1="0" x2="0.2" y2="1">
      <stop offset="0%" stop-color="#5c7cfa"/>
      <stop offset="100%" stop-color="#3b5bdb"/>
    </linearGradient>
    <linearGradient id="spine9ut3vc" x1="0" y1="0" x2="1" y2="0">
      <stop offset="0%" stop-color="rgba(0,0,0,0.3)"/>
      <stop offset="100%" stop-color="rgba(0,0,0,0)"/>
    </linearGradient>
  </defs>
  <rect width="300" height="400" fill="url(#bg9ut3vc)"/>
  <rect x="0" y="0" width="28" height="400" fill="url(#spine9ut3vc)"/>
  <rect x="0" y="0" width="300" height="8" fill="#ff6b6b"/>
  <rect x="16" y="16" width="268" height="368" rx="6" fill="none" stroke="rgba(255,255,255,0.3)" stroke-width="2"/>
  
      <rect x="135" y="108" width="30" height="40" rx="4" fill="rgba(255,255,255,0.85)"/>
      <polygon points="150,82 165,108 135,108" fill="#ff6b6b"/>
      <circle cx="118" cy="125" r="10" fill="rgba(255,255,255,0.35)"/>
      <circle cx="182" cy="125" r="10" fill="rgba(255,255,255,0.35)"/>
  
  
  <text x="150" y="200" text-anchor="middle" font-family="Georgia, 'Palatino Linotype', serif" font-size="16" font-weight="700" fill="#ffffff"><tspan x="150" dy="0" text-anchor="middle">Junior Maker</tspan></text>
  <text x="150" y="272" text-anchor="middle" font-family="Arial" font-size="10" font-weight="600" fill="rgba(255,255,255,0.9)">STEM &amp; Creativity</text>
  
  <line x1="50" y1="288" x2="250" y2="288" stroke="rgba(255,255,255,0.35)" stroke-width="1"/>
  <text x="150" y="312" text-anchor="middle" font-family="Arial" font-size="9" font-weight="700" fill="rgba(255,255,255,0.8)" letter-spacing="2">LIFEWITHBOOKS</text>
  <text x="150" y="332" text-anchor="middle" font-family="Arial" font-size="10" font-weight="700" fill="#fff" letter-spacing="1">KIDS LEARNING BOOKS</text>
  <circle cx="118" cy="358" r="5" fill="#ff6b6b"/>
  <circle cx="136" cy="358" r="5" fill="#ffd93d"/>
  <circle cx="154" cy="358" r="5" fill="#6bcb77"/>
  <circle cx="172" cy="358" r="5" fill="#4d96ff"/>
  <circle cx="190" cy="358" r="5" fill="#c77dff"/>
</svg>